<mxfile host="app.diagrams.net" modified="2022-12-05T14:13:25.535Z" agent="5.0 (Macintosh; Intel Mac OS X 10_15_7) AppleWebKit/537.36 (KHTML, like Gecko) Chrome/107.0.0.0 Safari/537.36" etag="cnHkAe9GwkiN23MY6Sil" version="20.5.3" type="github">
  <diagram id="1ziBkIOy0aIOfrTeset_" name="第 1 页">
    <mxGraphModel dx="1773" dy="621" grid="1" gridSize="10" guides="1" tooltips="1" connect="1" arrows="1" fold="1" page="1" pageScale="1" pageWidth="827" pageHeight="1169" math="0" shadow="0">
      <root>
        <mxCell id="0" />
        <mxCell id="1" parent="0" />
        <mxCell id="4rep5bl105MdZM5S8P01-1" value="" style="rounded=0;whiteSpace=wrap;html=1;fillColor=#f5f5f5;fontColor=#333333;strokeColor=#666666;" vertex="1" parent="1">
          <mxGeometry x="-730" y="30" width="940" height="640" as="geometry" />
        </mxCell>
        <mxCell id="4rep5bl105MdZM5S8P01-26" style="edgeStyle=orthogonalEdgeStyle;rounded=0;orthogonalLoop=1;jettySize=auto;html=1;fontSize=15;curved=1;strokeWidth=5;" edge="1" parent="1" source="4rep5bl105MdZM5S8P01-3" target="4rep5bl105MdZM5S8P01-23">
          <mxGeometry relative="1" as="geometry" />
        </mxCell>
        <mxCell id="4rep5bl105MdZM5S8P01-3" value="" style="rounded=0;whiteSpace=wrap;html=1;fillColor=#dae8fc;strokeColor=#6c8ebf;" vertex="1" parent="1">
          <mxGeometry x="-550" y="50" width="130" height="250" as="geometry" />
        </mxCell>
        <mxCell id="4rep5bl105MdZM5S8P01-4" value="" style="sketch=0;outlineConnect=0;fontColor=#232F3E;gradientColor=none;fillColor=#232F3D;strokeColor=none;dashed=0;verticalLabelPosition=bottom;verticalAlign=top;align=center;html=1;fontSize=12;fontStyle=0;aspect=fixed;pointerEvents=1;shape=mxgraph.aws4.documents;" vertex="1" parent="1">
          <mxGeometry x="-522" y="90" width="64" height="78" as="geometry" />
        </mxCell>
        <mxCell id="4rep5bl105MdZM5S8P01-5" value="" style="sketch=0;outlineConnect=0;fontColor=#232F3E;gradientColor=none;fillColor=#232F3D;strokeColor=none;dashed=0;verticalLabelPosition=bottom;verticalAlign=top;align=center;html=1;fontSize=12;fontStyle=0;aspect=fixed;pointerEvents=1;shape=mxgraph.aws4.documents;" vertex="1" parent="1">
          <mxGeometry x="-522" y="190" width="64" height="78" as="geometry" />
        </mxCell>
        <mxCell id="4rep5bl105MdZM5S8P01-6" value="一个段中包含很多文档" style="text;html=1;strokeColor=none;fillColor=none;align=center;verticalAlign=middle;whiteSpace=wrap;rounded=0;" vertex="1" parent="1">
          <mxGeometry x="-550" y="50" width="130" height="30" as="geometry" />
        </mxCell>
        <mxCell id="4rep5bl105MdZM5S8P01-7" value="&lt;b&gt;&lt;font style=&quot;font-size: 13px;&quot;&gt;Segment m&lt;/font&gt;&lt;/b&gt;" style="text;html=1;strokeColor=none;fillColor=none;align=center;verticalAlign=middle;whiteSpace=wrap;rounded=0;" vertex="1" parent="1">
          <mxGeometry x="-550" y="300" width="130" height="30" as="geometry" />
        </mxCell>
        <mxCell id="4rep5bl105MdZM5S8P01-9" value="documents" style="text;html=1;strokeColor=none;fillColor=none;align=center;verticalAlign=middle;whiteSpace=wrap;rounded=0;fontSize=13;" vertex="1" parent="1">
          <mxGeometry x="-516" y="264" width="60" height="30" as="geometry" />
        </mxCell>
        <mxCell id="4rep5bl105MdZM5S8P01-10" value="documents" style="text;html=1;strokeColor=none;fillColor=none;align=center;verticalAlign=middle;whiteSpace=wrap;rounded=0;fontSize=13;" vertex="1" parent="1">
          <mxGeometry x="-520" y="160" width="60" height="30" as="geometry" />
        </mxCell>
        <mxCell id="4rep5bl105MdZM5S8P01-11" value="&lt;b&gt;&lt;font style=&quot;font-size: 15px;&quot;&gt;...&lt;/font&gt;&lt;/b&gt;" style="text;html=1;strokeColor=none;fillColor=none;align=center;verticalAlign=middle;whiteSpace=wrap;rounded=0;fontSize=13;" vertex="1" parent="1">
          <mxGeometry x="-526" y="340" width="82" height="30" as="geometry" />
        </mxCell>
        <mxCell id="4rep5bl105MdZM5S8P01-12" value="" style="rounded=0;whiteSpace=wrap;html=1;fillColor=#dae8fc;strokeColor=#6c8ebf;" vertex="1" parent="1">
          <mxGeometry x="-551" y="370" width="130" height="150" as="geometry" />
        </mxCell>
        <mxCell id="4rep5bl105MdZM5S8P01-13" value="" style="sketch=0;outlineConnect=0;fontColor=#232F3E;gradientColor=none;fillColor=#232F3D;strokeColor=none;dashed=0;verticalLabelPosition=bottom;verticalAlign=top;align=center;html=1;fontSize=12;fontStyle=0;aspect=fixed;pointerEvents=1;shape=mxgraph.aws4.documents;" vertex="1" parent="1">
          <mxGeometry x="-523" y="410" width="64" height="78" as="geometry" />
        </mxCell>
        <mxCell id="4rep5bl105MdZM5S8P01-15" value="一个段中包含很多文档" style="text;html=1;strokeColor=none;fillColor=none;align=center;verticalAlign=middle;whiteSpace=wrap;rounded=0;" vertex="1" parent="1">
          <mxGeometry x="-551" y="370" width="130" height="30" as="geometry" />
        </mxCell>
        <mxCell id="4rep5bl105MdZM5S8P01-16" value="&lt;b&gt;&lt;font style=&quot;font-size: 13px;&quot;&gt;Segment n&lt;/font&gt;&lt;/b&gt;" style="text;html=1;strokeColor=none;fillColor=none;align=center;verticalAlign=middle;whiteSpace=wrap;rounded=0;" vertex="1" parent="1">
          <mxGeometry x="-551" y="520" width="130" height="30" as="geometry" />
        </mxCell>
        <mxCell id="4rep5bl105MdZM5S8P01-18" value="documents" style="text;html=1;strokeColor=none;fillColor=none;align=center;verticalAlign=middle;whiteSpace=wrap;rounded=0;fontSize=13;" vertex="1" parent="1">
          <mxGeometry x="-521" y="480" width="60" height="30" as="geometry" />
        </mxCell>
        <mxCell id="4rep5bl105MdZM5S8P01-21" value="" style="shape=curlyBracket;whiteSpace=wrap;html=1;rounded=1;labelPosition=left;verticalLabelPosition=middle;align=right;verticalAlign=middle;fontSize=15;" vertex="1" parent="1">
          <mxGeometry x="-630" y="70" width="70" height="570" as="geometry" />
        </mxCell>
        <mxCell id="4rep5bl105MdZM5S8P01-22" value="一个Index由很多段组成" style="text;html=1;strokeColor=none;fillColor=none;align=center;verticalAlign=middle;whiteSpace=wrap;rounded=0;fontSize=15;" vertex="1" parent="1">
          <mxGeometry x="-730" y="340" width="120" height="30" as="geometry" />
        </mxCell>
        <mxCell id="4rep5bl105MdZM5S8P01-23" value="" style="rounded=0;whiteSpace=wrap;html=1;fontSize=15;fillColor=#CCE5FF;strokeColor=#d6b656;glass=1;" vertex="1" parent="1">
          <mxGeometry x="-330" y="60" width="480" height="400" as="geometry" />
        </mxCell>
        <mxCell id="4rep5bl105MdZM5S8P01-24" value="Segment info" style="rounded=1;whiteSpace=wrap;html=1;fontSize=15;fillColor=#d5e8d4;strokeColor=#82b366;" vertex="1" parent="1">
          <mxGeometry x="-551" y="560" width="120" height="30" as="geometry" />
        </mxCell>
        <mxCell id="4rep5bl105MdZM5S8P01-25" value="Lock" style="rounded=1;whiteSpace=wrap;html=1;fontSize=15;fillColor=#d5e8d4;strokeColor=#82b366;" vertex="1" parent="1">
          <mxGeometry x="-551" y="610" width="120" height="30" as="geometry" />
        </mxCell>
        <mxCell id="4rep5bl105MdZM5S8P01-27" value=".fnm;&lt;br&gt;存储索引域（字段）信息" style="rounded=1;whiteSpace=wrap;html=1;fontSize=15;fillColor=#d5e8d4;strokeColor=#82b366;glass=1;" vertex="1" parent="1">
          <mxGeometry x="-290" y="90" width="180" height="50" as="geometry" />
        </mxCell>
        <mxCell id="4rep5bl105MdZM5S8P01-28" value="&lt;div&gt;.fdt;&lt;/div&gt;&lt;div&gt;文档存储的字段的值&lt;/div&gt;" style="rounded=1;whiteSpace=wrap;html=1;fontSize=15;fillColor=#d5e8d4;strokeColor=#82b366;glass=1;" vertex="1" parent="1">
          <mxGeometry x="-70" y="90" width="180" height="50" as="geometry" />
        </mxCell>
        <mxCell id="4rep5bl105MdZM5S8P01-29" value="&lt;div&gt;.fdx;&lt;/div&gt;&lt;div&gt;保存指向field data的指针&lt;/div&gt;" style="rounded=1;whiteSpace=wrap;html=1;fontSize=15;fillColor=#d5e8d4;strokeColor=#82b366;glass=1;" vertex="1" parent="1">
          <mxGeometry x="-290" y="160" width="180" height="50" as="geometry" />
        </mxCell>
        <mxCell id="4rep5bl105MdZM5S8P01-30" value="&lt;div&gt;.tim;&lt;/div&gt;&lt;div&gt;term词典，存储term信息&lt;/div&gt;" style="rounded=1;whiteSpace=wrap;html=1;fontSize=15;fillColor=#d5e8d4;strokeColor=#82b366;glass=1;" vertex="1" parent="1">
          <mxGeometry x="-290" y="255" width="180" height="50" as="geometry" />
        </mxCell>
        <mxCell id="4rep5bl105MdZM5S8P01-31" value="&lt;div&gt;.tip;&lt;/div&gt;&lt;div&gt;指向词典的索引&lt;/div&gt;" style="rounded=1;whiteSpace=wrap;html=1;fontSize=15;fillColor=#d5e8d4;strokeColor=#82b366;glass=1;" vertex="1" parent="1">
          <mxGeometry x="-70" y="255" width="180" height="50" as="geometry" />
        </mxCell>
        <mxCell id="4rep5bl105MdZM5S8P01-32" value="&lt;div style=&quot;text-align: left;&quot;&gt;&lt;div&gt;&amp;nbsp; .doc;&lt;/div&gt;&lt;div&gt;词频列表&lt;/div&gt;&lt;/div&gt;" style="rounded=1;whiteSpace=wrap;html=1;fontSize=15;fillColor=#d5e8d4;strokeColor=#82b366;glass=1;" vertex="1" parent="1">
          <mxGeometry x="-290" y="330" width="180" height="50" as="geometry" />
        </mxCell>
        <mxCell id="4rep5bl105MdZM5S8P01-33" value="&lt;div&gt;.pos;&lt;/div&gt;&lt;div&gt;存储在索引中的term的位置信息&amp;nbsp;&lt;/div&gt;" style="rounded=1;whiteSpace=wrap;html=1;fontSize=15;sketch=0;shadow=0;fillColor=#d5e8d4;strokeColor=#82b366;glass=1;" vertex="1" parent="1">
          <mxGeometry x="-70" y="330" width="180" height="50" as="geometry" />
        </mxCell>
        <mxCell id="4rep5bl105MdZM5S8P01-34" value="其他文件类型如：.nvd、.nvm、.pay等文件这里就不做介绍了" style="text;html=1;strokeColor=none;fillColor=none;align=center;verticalAlign=middle;whiteSpace=wrap;rounded=0;fontSize=15;" vertex="1" parent="1">
          <mxGeometry x="-280" y="420" width="420" height="30" as="geometry" />
        </mxCell>
        <mxCell id="4rep5bl105MdZM5S8P01-35" value="" style="rounded=0;whiteSpace=wrap;html=1;shadow=0;glass=0;labelBackgroundColor=none;sketch=0;fontSize=15;fillColor=#f5f5f5;fontColor=#333333;strokeColor=#666666;" vertex="1" parent="1">
          <mxGeometry x="-720" y="760" width="850" height="1270" as="geometry" />
        </mxCell>
        <mxCell id="4rep5bl105MdZM5S8P01-36" value="" style="rounded=0;whiteSpace=wrap;html=1;shadow=0;glass=0;labelBackgroundColor=#FFFFFF;sketch=0;fontSize=15;fillColor=#CCE5FF;" vertex="1" parent="1">
          <mxGeometry x="-560" y="790" width="650" height="180" as="geometry" />
        </mxCell>
        <mxCell id="4rep5bl105MdZM5S8P01-39" style="edgeStyle=orthogonalEdgeStyle;curved=1;rounded=0;orthogonalLoop=1;jettySize=auto;html=1;strokeWidth=5;fontSize=15;" edge="1" parent="1" source="4rep5bl105MdZM5S8P01-37" target="4rep5bl105MdZM5S8P01-36">
          <mxGeometry relative="1" as="geometry" />
        </mxCell>
        <mxCell id="4rep5bl105MdZM5S8P01-37" value="Actor" style="shape=umlActor;verticalLabelPosition=bottom;verticalAlign=top;html=1;outlineConnect=0;rounded=1;shadow=0;glass=0;labelBackgroundColor=#FFFFFF;sketch=0;fontSize=15;fillColor=#CCE5FF;" vertex="1" parent="1">
          <mxGeometry x="-685" y="850" width="30" height="60" as="geometry" />
        </mxCell>
        <mxCell id="4rep5bl105MdZM5S8P01-46" value="&lt;span style=&quot;&quot;&gt;1. 用户调用Solr API文档写入Solr&lt;/span&gt;" style="text;html=1;strokeColor=none;fillColor=none;align=center;verticalAlign=middle;whiteSpace=wrap;rounded=0;shadow=0;glass=0;labelBackgroundColor=none;sketch=0;fontSize=15;opacity=0;connectable=1;allowArrows=1;" vertex="1" parent="1">
          <mxGeometry x="-586" y="790" width="306" height="30" as="geometry" />
        </mxCell>
        <mxCell id="4rep5bl105MdZM5S8P01-55" style="edgeStyle=orthogonalEdgeStyle;curved=1;rounded=0;orthogonalLoop=1;jettySize=auto;html=1;exitX=1;exitY=0.5;exitDx=0;exitDy=0;entryX=0;entryY=0.5;entryDx=0;entryDy=0;strokeWidth=5;fontSize=15;" edge="1" parent="1" source="4rep5bl105MdZM5S8P01-48" target="4rep5bl105MdZM5S8P01-54">
          <mxGeometry relative="1" as="geometry" />
        </mxCell>
        <mxCell id="4rep5bl105MdZM5S8P01-48" value="" style="rounded=0;whiteSpace=wrap;html=1;shadow=0;glass=0;labelBackgroundColor=default;labelBorderColor=none;sketch=0;fontSize=15;fillColor=#d5e8d4;strokeColor=#82b366;" vertex="1" parent="1">
          <mxGeometry x="-540" y="820" width="250" height="110" as="geometry" />
        </mxCell>
        <mxCell id="4rep5bl105MdZM5S8P01-44" value="" style="sketch=0;outlineConnect=0;fontColor=#232F3E;gradientColor=none;fillColor=#232F3D;strokeColor=none;dashed=0;verticalLabelPosition=bottom;verticalAlign=top;align=center;html=1;fontSize=12;fontStyle=0;aspect=fixed;pointerEvents=1;shape=mxgraph.aws4.documents;rounded=1;shadow=0;glass=0;labelBackgroundColor=#FFFFFF;" vertex="1" parent="1">
          <mxGeometry x="-370" y="835" width="64" height="78" as="geometry" />
        </mxCell>
        <mxCell id="4rep5bl105MdZM5S8P01-43" value="" style="sketch=0;outlineConnect=0;fontColor=#232F3E;gradientColor=none;fillColor=#232F3D;strokeColor=none;dashed=0;verticalLabelPosition=bottom;verticalAlign=top;align=center;html=1;fontSize=12;fontStyle=0;aspect=fixed;pointerEvents=1;shape=mxgraph.aws4.documents;rounded=1;shadow=0;glass=0;labelBackgroundColor=#FFFFFF;" vertex="1" parent="1">
          <mxGeometry x="-495" y="826" width="64" height="78" as="geometry" />
        </mxCell>
        <mxCell id="4rep5bl105MdZM5S8P01-49" value="Buffer" style="text;html=1;strokeColor=none;fillColor=none;align=center;verticalAlign=middle;whiteSpace=wrap;rounded=0;shadow=0;glass=0;labelBackgroundColor=none;labelBorderColor=none;sketch=0;fontSize=15;" vertex="1" parent="1">
          <mxGeometry x="-445" y="904" width="60" height="30" as="geometry" />
        </mxCell>
        <mxCell id="4rep5bl105MdZM5S8P01-54" value="" style="rounded=0;whiteSpace=wrap;html=1;shadow=0;glass=0;labelBackgroundColor=none;labelBorderColor=none;sketch=0;fontSize=15;fillColor=#ffe6cc;strokeColor=#d79b00;" vertex="1" parent="1">
          <mxGeometry x="20" y="819" width="50" height="110" as="geometry" />
        </mxCell>
        <mxCell id="4rep5bl105MdZM5S8P01-56" value="Buffer内存或Doc数量；&lt;br&gt;用户主动提交；&lt;br&gt;自动提交" style="text;html=1;strokeColor=none;fillColor=none;align=center;verticalAlign=middle;whiteSpace=wrap;rounded=0;shadow=0;glass=0;labelBackgroundColor=none;labelBorderColor=none;sketch=0;fontSize=15;" vertex="1" parent="1">
          <mxGeometry x="-280" y="800" width="290" height="65" as="geometry" />
        </mxCell>
        <mxCell id="4rep5bl105MdZM5S8P01-57" value="触发flush索引，生成一个段文件" style="text;html=1;strokeColor=none;fillColor=none;align=center;verticalAlign=middle;whiteSpace=wrap;rounded=0;shadow=0;glass=0;labelBackgroundColor=none;labelBorderColor=none;sketch=0;fontSize=15;" vertex="1" parent="1">
          <mxGeometry x="-240" y="883" width="220" height="30" as="geometry" />
        </mxCell>
        <mxCell id="4rep5bl105MdZM5S8P01-58" value="Segment 1" style="text;html=1;strokeColor=none;fillColor=none;align=center;verticalAlign=middle;whiteSpace=wrap;rounded=0;shadow=0;glass=0;labelBackgroundColor=none;labelBorderColor=none;sketch=0;fontSize=15;" vertex="1" parent="1">
          <mxGeometry x="-20" y="940" width="110" height="30" as="geometry" />
        </mxCell>
        <mxCell id="4rep5bl105MdZM5S8P01-59" value="" style="rounded=0;whiteSpace=wrap;html=1;shadow=0;glass=0;labelBackgroundColor=#FFFFFF;sketch=0;fontSize=15;fillColor=#CCE5FF;" vertex="1" parent="1">
          <mxGeometry x="-560" y="1020" width="650" height="180" as="geometry" />
        </mxCell>
        <mxCell id="4rep5bl105MdZM5S8P01-60" style="edgeStyle=orthogonalEdgeStyle;curved=1;rounded=0;orthogonalLoop=1;jettySize=auto;html=1;strokeWidth=5;fontSize=15;" edge="1" parent="1" source="4rep5bl105MdZM5S8P01-61" target="4rep5bl105MdZM5S8P01-59">
          <mxGeometry relative="1" as="geometry" />
        </mxCell>
        <mxCell id="4rep5bl105MdZM5S8P01-61" value="Actor" style="shape=umlActor;verticalLabelPosition=bottom;verticalAlign=top;html=1;outlineConnect=0;rounded=1;shadow=0;glass=0;labelBackgroundColor=#FFFFFF;sketch=0;fontSize=15;fillColor=#CCE5FF;" vertex="1" parent="1">
          <mxGeometry x="-685" y="1080" width="30" height="60" as="geometry" />
        </mxCell>
        <mxCell id="4rep5bl105MdZM5S8P01-62" value="&lt;span style=&quot;&quot;&gt;2. 用户继续增加文档&lt;/span&gt;" style="text;html=1;strokeColor=none;fillColor=none;align=left;verticalAlign=middle;whiteSpace=wrap;rounded=0;shadow=0;glass=0;labelBackgroundColor=none;sketch=0;fontSize=15;opacity=0;connectable=1;allowArrows=1;" vertex="1" parent="1">
          <mxGeometry x="-550" y="1019" width="306" height="30" as="geometry" />
        </mxCell>
        <mxCell id="4rep5bl105MdZM5S8P01-63" style="edgeStyle=orthogonalEdgeStyle;curved=1;rounded=0;orthogonalLoop=1;jettySize=auto;html=1;exitX=1;exitY=0.5;exitDx=0;exitDy=0;strokeWidth=5;fontSize=15;entryX=0;entryY=0.5;entryDx=0;entryDy=0;" edge="1" parent="1" source="4rep5bl105MdZM5S8P01-64" target="4rep5bl105MdZM5S8P01-72">
          <mxGeometry relative="1" as="geometry">
            <mxPoint x="-100" y="1104" as="targetPoint" />
          </mxGeometry>
        </mxCell>
        <mxCell id="4rep5bl105MdZM5S8P01-64" value="" style="rounded=0;whiteSpace=wrap;html=1;shadow=0;glass=0;labelBackgroundColor=default;labelBorderColor=none;sketch=0;fontSize=15;fillColor=#d5e8d4;strokeColor=#82b366;" vertex="1" parent="1">
          <mxGeometry x="-540" y="1050" width="250" height="110" as="geometry" />
        </mxCell>
        <mxCell id="4rep5bl105MdZM5S8P01-65" value="" style="sketch=0;outlineConnect=0;fontColor=#232F3E;gradientColor=none;fillColor=#232F3D;strokeColor=none;dashed=0;verticalLabelPosition=bottom;verticalAlign=top;align=center;html=1;fontSize=12;fontStyle=0;aspect=fixed;pointerEvents=1;shape=mxgraph.aws4.documents;rounded=1;shadow=0;glass=0;labelBackgroundColor=#FFFFFF;" vertex="1" parent="1">
          <mxGeometry x="-370" y="1065" width="64" height="78" as="geometry" />
        </mxCell>
        <mxCell id="4rep5bl105MdZM5S8P01-66" value="" style="sketch=0;outlineConnect=0;fontColor=#232F3E;gradientColor=none;fillColor=#232F3D;strokeColor=none;dashed=0;verticalLabelPosition=bottom;verticalAlign=top;align=center;html=1;fontSize=12;fontStyle=0;aspect=fixed;pointerEvents=1;shape=mxgraph.aws4.documents;rounded=1;shadow=0;glass=0;labelBackgroundColor=#FFFFFF;" vertex="1" parent="1">
          <mxGeometry x="-495" y="1056" width="64" height="78" as="geometry" />
        </mxCell>
        <mxCell id="4rep5bl105MdZM5S8P01-67" value="Buffer" style="text;html=1;strokeColor=none;fillColor=none;align=center;verticalAlign=middle;whiteSpace=wrap;rounded=0;shadow=0;glass=0;labelBackgroundColor=none;labelBorderColor=none;sketch=0;fontSize=15;" vertex="1" parent="1">
          <mxGeometry x="-445" y="1134" width="60" height="30" as="geometry" />
        </mxCell>
        <mxCell id="4rep5bl105MdZM5S8P01-68" value="" style="rounded=0;whiteSpace=wrap;html=1;shadow=0;glass=0;labelBackgroundColor=none;labelBorderColor=none;sketch=0;fontSize=15;fillColor=#ffe6cc;strokeColor=#d79b00;" vertex="1" parent="1">
          <mxGeometry x="20" y="1049" width="50" height="110" as="geometry" />
        </mxCell>
        <mxCell id="4rep5bl105MdZM5S8P01-71" value="Segment 1" style="text;html=1;strokeColor=none;fillColor=none;align=center;verticalAlign=middle;whiteSpace=wrap;rounded=0;shadow=0;glass=0;labelBackgroundColor=none;labelBorderColor=none;sketch=0;fontSize=15;" vertex="1" parent="1">
          <mxGeometry x="-20" y="1170" width="110" height="30" as="geometry" />
        </mxCell>
        <mxCell id="4rep5bl105MdZM5S8P01-72" value="" style="rounded=0;whiteSpace=wrap;html=1;shadow=0;glass=0;labelBackgroundColor=none;labelBorderColor=none;sketch=0;fontSize=15;fillColor=#ffe6cc;strokeColor=#d79b00;" vertex="1" parent="1">
          <mxGeometry x="-70" y="1050" width="50" height="110" as="geometry" />
        </mxCell>
        <mxCell id="4rep5bl105MdZM5S8P01-73" value="Segment 2" style="text;html=1;strokeColor=none;fillColor=none;align=center;verticalAlign=middle;whiteSpace=wrap;rounded=0;shadow=0;glass=0;labelBackgroundColor=none;labelBorderColor=none;sketch=0;fontSize=15;" vertex="1" parent="1">
          <mxGeometry x="-110" y="1170" width="110" height="30" as="geometry" />
        </mxCell>
        <mxCell id="4rep5bl105MdZM5S8P01-74" value="生成一个新段" style="text;html=1;strokeColor=none;fillColor=none;align=center;verticalAlign=middle;whiteSpace=wrap;rounded=0;shadow=0;glass=0;labelBackgroundColor=none;labelBorderColor=none;sketch=0;fontSize=15;" vertex="1" parent="1">
          <mxGeometry x="-250" y="1113" width="140" height="30" as="geometry" />
        </mxCell>
        <mxCell id="4rep5bl105MdZM5S8P01-76" value="" style="rounded=0;whiteSpace=wrap;html=1;shadow=0;glass=0;labelBackgroundColor=#FFFFFF;sketch=0;fontSize=15;fillColor=#CCE5FF;" vertex="1" parent="1">
          <mxGeometry x="-560" y="1251" width="650" height="180" as="geometry" />
        </mxCell>
        <mxCell id="4rep5bl105MdZM5S8P01-77" style="edgeStyle=orthogonalEdgeStyle;curved=1;rounded=0;orthogonalLoop=1;jettySize=auto;html=1;strokeWidth=5;fontSize=15;" edge="1" parent="1" source="4rep5bl105MdZM5S8P01-78" target="4rep5bl105MdZM5S8P01-76">
          <mxGeometry relative="1" as="geometry" />
        </mxCell>
        <mxCell id="4rep5bl105MdZM5S8P01-78" value="Actor" style="shape=umlActor;verticalLabelPosition=bottom;verticalAlign=top;html=1;outlineConnect=0;rounded=1;shadow=0;glass=0;labelBackgroundColor=#FFFFFF;sketch=0;fontSize=15;fillColor=#CCE5FF;" vertex="1" parent="1">
          <mxGeometry x="-685" y="1311" width="30" height="60" as="geometry" />
        </mxCell>
        <mxCell id="4rep5bl105MdZM5S8P01-79" value="&lt;span style=&quot;&quot;&gt;3. 更新了一个文档&lt;/span&gt;" style="text;html=1;strokeColor=none;fillColor=none;align=left;verticalAlign=middle;whiteSpace=wrap;rounded=0;shadow=0;glass=0;labelBackgroundColor=none;sketch=0;fontSize=15;opacity=0;connectable=1;allowArrows=1;" vertex="1" parent="1">
          <mxGeometry x="-550" y="1250" width="306" height="30" as="geometry" />
        </mxCell>
        <mxCell id="4rep5bl105MdZM5S8P01-94" style="edgeStyle=orthogonalEdgeStyle;curved=1;rounded=0;orthogonalLoop=1;jettySize=auto;html=1;exitX=1;exitY=0.5;exitDx=0;exitDy=0;entryX=0;entryY=0.5;entryDx=0;entryDy=0;strokeWidth=5;fontSize=15;" edge="1" parent="1" source="4rep5bl105MdZM5S8P01-81" target="4rep5bl105MdZM5S8P01-92">
          <mxGeometry relative="1" as="geometry" />
        </mxCell>
        <mxCell id="4rep5bl105MdZM5S8P01-81" value="" style="rounded=0;whiteSpace=wrap;html=1;shadow=0;glass=0;labelBackgroundColor=default;labelBorderColor=none;sketch=0;fontSize=15;fillColor=#d5e8d4;strokeColor=#82b366;" vertex="1" parent="1">
          <mxGeometry x="-540" y="1281" width="250" height="110" as="geometry" />
        </mxCell>
        <mxCell id="4rep5bl105MdZM5S8P01-82" value="" style="sketch=0;outlineConnect=0;fontColor=#232F3E;gradientColor=none;fillColor=#232F3D;strokeColor=none;dashed=0;verticalLabelPosition=bottom;verticalAlign=top;align=center;html=1;fontSize=12;fontStyle=0;aspect=fixed;pointerEvents=1;shape=mxgraph.aws4.documents;rounded=1;shadow=0;glass=0;labelBackgroundColor=#FFFFFF;" vertex="1" parent="1">
          <mxGeometry x="-370" y="1296" width="64" height="78" as="geometry" />
        </mxCell>
        <mxCell id="4rep5bl105MdZM5S8P01-83" value="" style="sketch=0;outlineConnect=0;fontColor=#232F3E;gradientColor=none;fillColor=#232F3D;strokeColor=none;dashed=0;verticalLabelPosition=bottom;verticalAlign=top;align=center;html=1;fontSize=12;fontStyle=0;aspect=fixed;pointerEvents=1;shape=mxgraph.aws4.documents;rounded=1;shadow=0;glass=0;labelBackgroundColor=#FFFFFF;" vertex="1" parent="1">
          <mxGeometry x="-495" y="1287" width="64" height="78" as="geometry" />
        </mxCell>
        <mxCell id="4rep5bl105MdZM5S8P01-84" value="Buffer" style="text;html=1;strokeColor=none;fillColor=none;align=center;verticalAlign=middle;whiteSpace=wrap;rounded=0;shadow=0;glass=0;labelBackgroundColor=none;labelBorderColor=none;sketch=0;fontSize=15;" vertex="1" parent="1">
          <mxGeometry x="-445" y="1365" width="60" height="30" as="geometry" />
        </mxCell>
        <mxCell id="4rep5bl105MdZM5S8P01-85" value="" style="rounded=0;whiteSpace=wrap;html=1;shadow=0;glass=0;labelBackgroundColor=none;labelBorderColor=none;sketch=0;fontSize=15;fillColor=#ffe6cc;strokeColor=#d79b00;" vertex="1" parent="1">
          <mxGeometry x="20" y="1280" width="50" height="110" as="geometry" />
        </mxCell>
        <mxCell id="4rep5bl105MdZM5S8P01-86" value="Segment 1" style="text;html=1;strokeColor=none;fillColor=none;align=center;verticalAlign=middle;whiteSpace=wrap;rounded=0;shadow=0;glass=0;labelBackgroundColor=none;labelBorderColor=none;sketch=0;fontSize=15;" vertex="1" parent="1">
          <mxGeometry x="10" y="1401" width="80" height="30" as="geometry" />
        </mxCell>
        <mxCell id="4rep5bl105MdZM5S8P01-87" value="" style="rounded=0;whiteSpace=wrap;html=1;shadow=0;glass=0;labelBackgroundColor=none;labelBorderColor=none;sketch=0;fontSize=15;fillColor=#ffe6cc;strokeColor=#d79b00;" vertex="1" parent="1">
          <mxGeometry x="-50" y="1281" width="50" height="110" as="geometry" />
        </mxCell>
        <mxCell id="4rep5bl105MdZM5S8P01-88" value="Segment 2" style="text;html=1;strokeColor=none;fillColor=none;align=center;verticalAlign=middle;whiteSpace=wrap;rounded=0;shadow=0;glass=0;labelBackgroundColor=none;labelBorderColor=none;sketch=0;fontSize=15;" vertex="1" parent="1">
          <mxGeometry x="-70" y="1401" width="80" height="30" as="geometry" />
        </mxCell>
        <mxCell id="4rep5bl105MdZM5S8P01-89" value="新文档在新段中，老文档采用标记删除" style="text;html=1;strokeColor=none;fillColor=none;align=center;verticalAlign=middle;whiteSpace=wrap;rounded=0;shadow=0;glass=0;labelBackgroundColor=none;labelBorderColor=none;sketch=0;fontSize=15;" vertex="1" parent="1">
          <mxGeometry x="-280" y="1344" width="140" height="30" as="geometry" />
        </mxCell>
        <mxCell id="4rep5bl105MdZM5S8P01-91" value="del" style="rounded=0;whiteSpace=wrap;html=1;shadow=0;glass=0;labelBackgroundColor=none;labelBorderColor=none;sketch=0;fontSize=15;fillColor=#e51400;strokeColor=#B20000;fontColor=#ffffff;" vertex="1" parent="1">
          <mxGeometry x="-50" y="1364" width="50" height="26" as="geometry" />
        </mxCell>
        <mxCell id="4rep5bl105MdZM5S8P01-92" value="" style="rounded=0;whiteSpace=wrap;html=1;shadow=0;glass=0;labelBackgroundColor=none;labelBorderColor=none;sketch=0;fontSize=15;fillColor=#ffe6cc;strokeColor=#d79b00;" vertex="1" parent="1">
          <mxGeometry x="-120" y="1281" width="50" height="110" as="geometry" />
        </mxCell>
        <mxCell id="4rep5bl105MdZM5S8P01-93" value="Segment 3" style="text;html=1;strokeColor=none;fillColor=none;align=center;verticalAlign=middle;whiteSpace=wrap;rounded=0;shadow=0;glass=0;labelBackgroundColor=none;labelBorderColor=none;sketch=0;fontSize=15;" vertex="1" parent="1">
          <mxGeometry x="-150" y="1401" width="80" height="30" as="geometry" />
        </mxCell>
        <mxCell id="4rep5bl105MdZM5S8P01-95" value="" style="rounded=0;whiteSpace=wrap;html=1;shadow=0;glass=0;labelBackgroundColor=#FFFFFF;sketch=0;fontSize=15;fillColor=#CCE5FF;" vertex="1" parent="1">
          <mxGeometry x="-557.5" y="1481" width="650" height="189" as="geometry" />
        </mxCell>
        <mxCell id="4rep5bl105MdZM5S8P01-96" style="edgeStyle=orthogonalEdgeStyle;curved=1;rounded=0;orthogonalLoop=1;jettySize=auto;html=1;strokeWidth=5;fontSize=15;" edge="1" source="4rep5bl105MdZM5S8P01-97" target="4rep5bl105MdZM5S8P01-95" parent="1">
          <mxGeometry relative="1" as="geometry" />
        </mxCell>
        <mxCell id="4rep5bl105MdZM5S8P01-97" value="Actor" style="shape=umlActor;verticalLabelPosition=bottom;verticalAlign=top;html=1;outlineConnect=0;rounded=1;shadow=0;glass=0;labelBackgroundColor=#FFFFFF;sketch=0;fontSize=15;fillColor=#CCE5FF;" vertex="1" parent="1">
          <mxGeometry x="-682.5" y="1545" width="30" height="60" as="geometry" />
        </mxCell>
        <mxCell id="4rep5bl105MdZM5S8P01-98" value="&lt;span style=&quot;&quot;&gt;4. 提交或主动调用优化接口&lt;/span&gt;" style="text;html=1;strokeColor=none;fillColor=none;align=left;verticalAlign=middle;whiteSpace=wrap;rounded=0;shadow=0;glass=0;labelBackgroundColor=none;sketch=0;fontSize=15;opacity=0;connectable=1;allowArrows=1;" vertex="1" parent="1">
          <mxGeometry x="-547.5" y="1480" width="306" height="30" as="geometry" />
        </mxCell>
        <mxCell id="4rep5bl105MdZM5S8P01-104" value="" style="rounded=0;whiteSpace=wrap;html=1;shadow=0;glass=0;labelBackgroundColor=none;labelBorderColor=none;sketch=0;fontSize=15;fillColor=#ffe6cc;strokeColor=#d79b00;" vertex="1" parent="1">
          <mxGeometry x="22.5" y="1510" width="50" height="110" as="geometry" />
        </mxCell>
        <mxCell id="4rep5bl105MdZM5S8P01-105" value="Segment 1" style="text;html=1;strokeColor=none;fillColor=none;align=center;verticalAlign=middle;whiteSpace=wrap;rounded=0;shadow=0;glass=0;labelBackgroundColor=none;labelBorderColor=none;sketch=0;fontSize=15;" vertex="1" parent="1">
          <mxGeometry x="12.5" y="1631" width="80" height="30" as="geometry" />
        </mxCell>
        <mxCell id="4rep5bl105MdZM5S8P01-106" value="" style="rounded=0;whiteSpace=wrap;html=1;shadow=0;glass=0;labelBackgroundColor=none;labelBorderColor=none;sketch=0;fontSize=15;fillColor=#ffe6cc;strokeColor=#d79b00;" vertex="1" parent="1">
          <mxGeometry x="-47.5" y="1511" width="50" height="110" as="geometry" />
        </mxCell>
        <mxCell id="4rep5bl105MdZM5S8P01-107" value="Segment 2" style="text;html=1;strokeColor=none;fillColor=none;align=center;verticalAlign=middle;whiteSpace=wrap;rounded=0;shadow=0;glass=0;labelBackgroundColor=none;labelBorderColor=none;sketch=0;fontSize=15;" vertex="1" parent="1">
          <mxGeometry x="-67.5" y="1631" width="80" height="30" as="geometry" />
        </mxCell>
        <mxCell id="4rep5bl105MdZM5S8P01-109" value="del" style="rounded=0;whiteSpace=wrap;html=1;shadow=0;glass=0;labelBackgroundColor=none;labelBorderColor=none;sketch=0;fontSize=15;fillColor=#e51400;strokeColor=#B20000;fontColor=#ffffff;" vertex="1" parent="1">
          <mxGeometry x="-47.5" y="1594" width="50" height="26" as="geometry" />
        </mxCell>
        <mxCell id="4rep5bl105MdZM5S8P01-114" style="edgeStyle=orthogonalEdgeStyle;curved=1;rounded=0;orthogonalLoop=1;jettySize=auto;html=1;entryX=1;entryY=0.5;entryDx=0;entryDy=0;strokeWidth=5;fontSize=15;" edge="1" parent="1" source="4rep5bl105MdZM5S8P01-110" target="4rep5bl105MdZM5S8P01-112">
          <mxGeometry relative="1" as="geometry" />
        </mxCell>
        <mxCell id="4rep5bl105MdZM5S8P01-110" value="" style="rounded=0;whiteSpace=wrap;html=1;shadow=0;glass=0;labelBackgroundColor=none;labelBorderColor=none;sketch=0;fontSize=15;fillColor=#ffe6cc;strokeColor=#d79b00;" vertex="1" parent="1">
          <mxGeometry x="-117.5" y="1511" width="50" height="110" as="geometry" />
        </mxCell>
        <mxCell id="4rep5bl105MdZM5S8P01-111" value="Segment 3" style="text;html=1;strokeColor=none;fillColor=none;align=center;verticalAlign=middle;whiteSpace=wrap;rounded=0;shadow=0;glass=0;labelBackgroundColor=none;labelBorderColor=none;sketch=0;fontSize=15;" vertex="1" parent="1">
          <mxGeometry x="-147.5" y="1631" width="80" height="30" as="geometry" />
        </mxCell>
        <mxCell id="4rep5bl105MdZM5S8P01-112" value="" style="rounded=0;whiteSpace=wrap;html=1;shadow=0;glass=0;labelBackgroundColor=none;labelBorderColor=none;sketch=0;fontSize=15;fillColor=#bac8d3;strokeColor=#23445d;" vertex="1" parent="1">
          <mxGeometry x="-520" y="1506" width="150" height="120" as="geometry" />
        </mxCell>
        <mxCell id="4rep5bl105MdZM5S8P01-113" value="Segment n" style="text;html=1;strokeColor=none;fillColor=none;align=center;verticalAlign=middle;whiteSpace=wrap;rounded=0;shadow=0;glass=0;labelBackgroundColor=none;labelBorderColor=none;sketch=0;fontSize=15;" vertex="1" parent="1">
          <mxGeometry x="-513" y="1626" width="128" height="30" as="geometry" />
        </mxCell>
        <mxCell id="4rep5bl105MdZM5S8P01-115" value="将3个小段的索引文件copy至大段中" style="text;html=1;strokeColor=none;fillColor=none;align=center;verticalAlign=middle;whiteSpace=wrap;rounded=0;shadow=0;glass=0;labelBackgroundColor=none;labelBorderColor=none;sketch=0;fontSize=15;" vertex="1" parent="1">
          <mxGeometry x="-310" y="1530" width="150" height="30" as="geometry" />
        </mxCell>
        <mxCell id="4rep5bl105MdZM5S8P01-116" value="" style="rounded=0;whiteSpace=wrap;html=1;shadow=0;glass=0;labelBackgroundColor=#FFFFFF;sketch=0;fontSize=15;fillColor=#CCE5FF;" vertex="1" parent="1">
          <mxGeometry x="-560" y="1731" width="650" height="189" as="geometry" />
        </mxCell>
        <mxCell id="4rep5bl105MdZM5S8P01-117" style="edgeStyle=orthogonalEdgeStyle;curved=1;rounded=0;orthogonalLoop=1;jettySize=auto;html=1;strokeWidth=5;fontSize=15;" edge="1" parent="1" source="4rep5bl105MdZM5S8P01-118" target="4rep5bl105MdZM5S8P01-116">
          <mxGeometry relative="1" as="geometry" />
        </mxCell>
        <mxCell id="4rep5bl105MdZM5S8P01-118" value="Actor" style="shape=umlActor;verticalLabelPosition=bottom;verticalAlign=top;html=1;outlineConnect=0;rounded=1;shadow=0;glass=0;labelBackgroundColor=#FFFFFF;sketch=0;fontSize=15;fillColor=#CCE5FF;" vertex="1" parent="1">
          <mxGeometry x="-685" y="1795" width="30" height="60" as="geometry" />
        </mxCell>
        <mxCell id="4rep5bl105MdZM5S8P01-119" value="&lt;span style=&quot;&quot;&gt;5. 大段生成后，删除小段，同时用户继续写索引生成小段&lt;/span&gt;" style="text;html=1;strokeColor=none;fillColor=none;align=left;verticalAlign=middle;whiteSpace=wrap;rounded=0;shadow=0;glass=0;labelBackgroundColor=none;sketch=0;fontSize=15;opacity=0;connectable=1;allowArrows=1;" vertex="1" parent="1">
          <mxGeometry x="-550" y="1730" width="400" height="30" as="geometry" />
        </mxCell>
        <mxCell id="4rep5bl105MdZM5S8P01-128" value="" style="rounded=0;whiteSpace=wrap;html=1;shadow=0;glass=0;labelBackgroundColor=none;labelBorderColor=none;sketch=0;fontSize=15;fillColor=#bac8d3;strokeColor=#23445d;" vertex="1" parent="1">
          <mxGeometry x="-100" y="1770" width="150" height="110" as="geometry" />
        </mxCell>
        <mxCell id="4rep5bl105MdZM5S8P01-129" value="Segment n" style="text;html=1;strokeColor=none;fillColor=none;align=center;verticalAlign=middle;whiteSpace=wrap;rounded=0;shadow=0;glass=0;labelBackgroundColor=none;labelBorderColor=none;sketch=0;fontSize=15;" vertex="1" parent="1">
          <mxGeometry x="-93" y="1880" width="128" height="30" as="geometry" />
        </mxCell>
        <mxCell id="4rep5bl105MdZM5S8P01-131" value="" style="rounded=0;whiteSpace=wrap;html=1;shadow=0;glass=0;labelBackgroundColor=none;labelBorderColor=none;sketch=0;fontSize=15;fillColor=#ffe6cc;strokeColor=#d79b00;" vertex="1" parent="1">
          <mxGeometry x="-190" y="1768" width="50" height="110" as="geometry" />
        </mxCell>
        <mxCell id="4rep5bl105MdZM5S8P01-132" value="Segment m" style="text;html=1;strokeColor=none;fillColor=none;align=center;verticalAlign=middle;whiteSpace=wrap;rounded=0;shadow=0;glass=0;labelBackgroundColor=none;labelBorderColor=none;sketch=0;fontSize=15;" vertex="1" parent="1">
          <mxGeometry x="-210" y="1880" width="80" height="30" as="geometry" />
        </mxCell>
        <mxCell id="4rep5bl105MdZM5S8P01-133" value="" style="rounded=0;whiteSpace=wrap;html=1;shadow=0;glass=0;labelBackgroundColor=default;labelBorderColor=none;sketch=0;fontSize=15;fillColor=#d5e8d4;strokeColor=#82b366;" vertex="1" parent="1">
          <mxGeometry x="-547.5" y="1768.5" width="250" height="110" as="geometry" />
        </mxCell>
        <mxCell id="4rep5bl105MdZM5S8P01-137" style="edgeStyle=orthogonalEdgeStyle;curved=1;rounded=0;orthogonalLoop=1;jettySize=auto;html=1;entryX=0;entryY=0.5;entryDx=0;entryDy=0;strokeWidth=5;fontSize=15;" edge="1" parent="1" source="4rep5bl105MdZM5S8P01-134" target="4rep5bl105MdZM5S8P01-131">
          <mxGeometry relative="1" as="geometry" />
        </mxCell>
        <mxCell id="4rep5bl105MdZM5S8P01-134" value="" style="sketch=0;outlineConnect=0;fontColor=#232F3E;gradientColor=none;fillColor=#232F3D;strokeColor=none;dashed=0;verticalLabelPosition=bottom;verticalAlign=top;align=center;html=1;fontSize=12;fontStyle=0;aspect=fixed;pointerEvents=1;shape=mxgraph.aws4.documents;rounded=1;shadow=0;glass=0;labelBackgroundColor=#FFFFFF;" vertex="1" parent="1">
          <mxGeometry x="-377.5" y="1783.5" width="64" height="78" as="geometry" />
        </mxCell>
        <mxCell id="4rep5bl105MdZM5S8P01-135" value="" style="sketch=0;outlineConnect=0;fontColor=#232F3E;gradientColor=none;fillColor=#232F3D;strokeColor=none;dashed=0;verticalLabelPosition=bottom;verticalAlign=top;align=center;html=1;fontSize=12;fontStyle=0;aspect=fixed;pointerEvents=1;shape=mxgraph.aws4.documents;rounded=1;shadow=0;glass=0;labelBackgroundColor=#FFFFFF;" vertex="1" parent="1">
          <mxGeometry x="-502.5" y="1774.5" width="64" height="78" as="geometry" />
        </mxCell>
        <mxCell id="4rep5bl105MdZM5S8P01-136" value="Buffer" style="text;html=1;strokeColor=none;fillColor=none;align=center;verticalAlign=middle;whiteSpace=wrap;rounded=0;shadow=0;glass=0;labelBackgroundColor=none;labelBorderColor=none;sketch=0;fontSize=15;" vertex="1" parent="1">
          <mxGeometry x="-452.5" y="1852.5" width="60" height="30" as="geometry" />
        </mxCell>
        <mxCell id="4rep5bl105MdZM5S8P01-138" value="&lt;b&gt;&lt;font style=&quot;font-size: 17px;&quot;&gt;...&lt;/font&gt;&lt;/b&gt;" style="text;html=1;strokeColor=none;fillColor=none;align=center;verticalAlign=middle;whiteSpace=wrap;rounded=0;shadow=0;glass=0;labelBackgroundColor=none;labelBorderColor=none;sketch=0;fontSize=15;" vertex="1" parent="1">
          <mxGeometry x="-444" y="1960" width="264" height="30" as="geometry" />
        </mxCell>
      </root>
    </mxGraphModel>
  </diagram>
</mxfile>
